# Blender 4.0.0
# www.blender.org
mtllib cafe.mtl
o 立方体
v -0.749470 -1.000000 -0.139002
v -0.749470 -0.945836 -0.146962
v -0.792390 -0.945836 -0.139002
v -0.749470 0.945836 -0.146962
v -0.749470 1.000000 -0.139002
v -0.792390 0.945836 -0.139002
v -0.749470 -1.000000 0.139002
v -0.792390 -0.945836 0.139002
v -0.749470 -0.945836 0.146962
v -0.749470 1.000000 0.139002
v -0.749470 0.945836 0.146962
v -0.792390 0.945836 0.139002
v 0.749470 -1.000000 -0.139002
v 0.792390 -0.945836 -0.139002
v 0.749470 -0.945836 -0.146962
v 0.749470 1.000000 -0.139002
v 0.749470 0.945836 -0.146962
v 0.792390 0.945836 -0.139002
v 0.749470 -1.000000 0.139002
v 0.749470 -0.945836 0.146962
v 0.792390 -0.945836 0.139002
v 0.749470 1.000000 0.139002
v 0.792390 0.945836 0.139002
v 0.749470 0.945836 0.146962
vn -0.0000 -0.0000 -1.0000
vn 1.0000 -0.0000 -0.0000
vn -0.0000 1.0000 -0.0000
vn -1.0000 -0.0000 -0.0000
vn -0.0000 -0.0000 1.0000
vn -0.1805 -0.1430 -0.9731
vn -0.1805 0.1430 -0.9731
vn -0.1805 -0.1430 0.9731
vn -0.1805 0.1430 0.9731
vn 0.1805 -0.1430 -0.9731
vn 0.1805 0.1430 -0.9731
vn 0.1805 -0.1430 0.9731
vn 0.1805 0.1430 0.9731
vn -0.7838 -0.6211 -0.0000
vn -0.1824 -0.0000 -0.9832
vn -0.7838 0.6211 -0.0000
vn -0.1824 -0.0000 0.9832
vn -0.0000 -0.1454 0.9894
vn -0.0000 0.1454 0.9894
vn 0.1824 -0.0000 0.9832
vn 0.7838 -0.6211 -0.0000
vn 0.7838 0.6211 -0.0000
vn 0.1824 -0.0000 -0.9832
vn -0.0000 -0.1454 -0.9894
vn -0.0000 0.1454 -0.9894
vn -0.0000 -1.0000 -0.0000
vt 0.032765 0.032189
vt 0.032765 0.969226
vt 0.972443 0.973625
vt 0.972443 0.036588
vt 0.694270 0.711422
vt 0.930729 0.711422
vt 0.930729 0.947881
vt 0.694270 0.947881
vt 0.940875 0.506770
vt 0.876834 0.506771
vt 0.876834 0.743229
vt 0.940875 0.743229
vt 0.381771 0.002866
vt 0.618229 0.002866
vt 0.618229 0.102948
vt 0.381771 0.102948
vt 0.027573 0.030614
vt 0.027573 0.965897
vt 0.962010 0.965897
vt 0.962010 0.030614
vt 0.069271 0.952532
vt 0.069271 0.959302
vt 0.062500 0.952532
vt 0.876834 0.750000
vt 0.875000 0.743229
vt 0.069271 0.716073
vt 0.062500 0.716073
vt 0.069271 0.709302
vt 0.876834 0.500000
vt 0.875000 0.506771
vt 0.305729 0.952532
vt 0.312500 0.952532
vt 0.305729 0.959302
vt 0.940875 0.750000
vt 0.942708 0.743230
vt 0.305729 0.716073
vt 0.305729 0.709302
vt 0.312500 0.716073
vt 0.942708 0.506771
vt 0.940875 0.500000
vt 0.999349 0.973751
vt 0.999349 0.036714
vt 0.000817 0.030614
vt 0.000817 0.965897
vt 0.694271 0.704651
vt 0.930729 0.704651
vt 0.930729 0.954651
vt 0.694271 0.954651
s 0
usemtl マテリアル.001
f 15/1/1 2/4/1 4/3/1 17/2/1
f 21/5/2 14/8/2 18/7/2 23/6/2
f 22/9/3 16/12/3 5/11/3 10/10/3
f 3/13/4 8/16/4 12/15/4 6/14/4
f 9/17/5 20/20/5 24/19/5 11/18/5
f 1/21/6 3/23/6 2/22/6
f 4/24/7 6/25/7 5/11/7
f 7/26/8 9/28/8 8/27/8
f 10/10/9 12/30/9 11/29/9
f 13/31/10 15/33/10 14/32/10
f 16/12/11 18/35/11 17/34/11
f 19/36/12 21/38/12 20/37/12
f 22/9/13 24/40/13 23/39/13
f 7/26/14 8/27/14 3/23/14 1/21/14
f 2/4/15 3/42/15 6/41/15 4/3/15
f 5/11/16 6/25/16 12/30/16 10/10/16
f 11/18/17 12/44/17 8/43/17 9/17/17
f 19/36/18 20/37/18 9/28/18 7/26/18
f 10/10/19 11/29/19 24/40/19 22/9/19
f 23/6/20 24/46/20 20/45/20 21/5/20
f 13/31/21 14/32/21 21/38/21 19/36/21
f 22/9/22 23/39/22 18/35/22 16/12/22
f 17/47/23 18/7/23 14/8/23 15/48/23
f 1/21/24 2/22/24 15/33/24 13/31/24
f 16/12/25 17/34/25 4/24/25 5/11/25
f 7/26/26 1/21/26 13/31/26 19/36/26
