# Blender 4.0.0
# www.blender.org
mtllib nekotowakai.mtl
o 立方体
v -2.000000 -0.500000 0.150000
v -2.000000 0.500000 0.150000
v -2.000000 -0.500000 -0.150000
v -2.000000 0.500000 -0.150000
v 2.000000 -0.500000 0.150000
v 2.000000 0.500000 0.150000
v 2.000000 -0.500000 -0.150000
v 2.000000 0.500000 -0.150000
vn -1.0000 -0.0000 -0.0000
vn -0.0000 -0.0000 -1.0000
vn 1.0000 -0.0000 -0.0000
vn -0.0000 -0.0000 1.0000
vn -0.0000 -1.0000 -0.0000
vn -0.0000 1.0000 -0.0000
vt 0.000000 0.666667
vt 0.000000 0.333333
vt 0.017651 0.333333
vt 0.017651 0.666667
vt 0.035302 0.333333
vt 0.035302 0.666667
vt 0.018861 0.333333
vt 0.018861 0.666667
vt 0.998975 0.024691
vt 0.998975 0.975309
vt 0.002421 0.975309
vt 0.002421 0.024691
vt 0.035302 1.000000
vt 0.052952 0.666667
vt 0.052952 1.000000
vt 0.035302 -0.000000
vt 0.052952 -0.000000
vt 0.052952 0.333333
s 0
usemtl マテリアル.001
f 1/1/1 2/2/1 4/3/1 3/4/1
f 3/4/2 4/3/2 8/5/2 7/6/2
f 7/6/3 8/5/3 6/7/3 5/8/3
f 5/9/4 6/10/4 2/11/4 1/12/4
f 3/13/5 7/6/5 5/14/5 1/15/5
f 8/5/6 4/16/6 2/17/6 6/18/6
