# Blender 4.0.0
# www.blender.org
mtllib cafe.mtl
o 平面
v -0.843814 -0.942473 -0.152558
v -0.795272 -0.942473 -0.000000
v -0.795272 -1.000000 -0.152558
v 0.795272 -1.000000 -0.152558
v 0.795272 -0.942473 -0.000000
v 0.843814 -0.942473 -0.152558
v -0.843814 0.942473 -0.152558
v -0.795272 1.000000 -0.152558
v -0.795272 0.942473 0.000000
v 0.843814 0.942473 -0.152558
v 0.795272 0.942473 0.000000
v 0.795272 1.000000 -0.152558
v -0.843814 0.942473 -0.111403
v -0.795272 0.942473 -0.263961
v -0.795272 1.000000 -0.111403
v -0.843814 -0.942473 -0.111403
v -0.795272 -1.000000 -0.111403
v -0.795272 -0.942473 -0.263961
v 0.795272 -1.000000 -0.111403
v 0.843814 -0.942473 -0.111403
v 0.795272 -0.942473 -0.263961
v 0.843814 0.942473 -0.111403
v 0.795272 1.000000 -0.111403
v 0.795272 0.942473 -0.263961
vn -0.0000 -1.0000 -0.0000
vn -0.0000 1.0000 -0.0000
vn -0.0000 -0.0000 -1.0000
vn -0.0000 -0.0000 1.0000
vn 1.0000 -0.0000 -0.0000
vn 0.7426 0.6266 -0.2363
vn -0.7426 0.6266 -0.2363
vn 0.7426 -0.6266 -0.2363
vn -0.7426 -0.6266 -0.2363
vn 0.7426 -0.6266 0.2363
vn 0.7426 0.6266 0.2363
vn -0.7426 0.6266 0.2363
vn -0.7426 -0.6266 0.2363
vn 0.9529 -0.0000 -0.3032
vn -0.0000 0.9357 -0.3528
vn -0.9529 -0.0000 -0.3032
vn -0.0000 -0.9357 -0.3528
vn 0.9529 -0.0000 0.3032
vn -0.0000 0.9357 0.3528
vn -0.9529 -0.0000 0.3032
vn -0.0000 -0.9357 0.3528
vn 0.7643 0.6449 -0.0000
vn 0.7643 -0.6449 -0.0000
vn -0.7643 -0.6449 -0.0000
vn -0.7643 0.6449 -0.0000
vn -1.0000 -0.0000 -0.0000
vt 0.028764 0.000000
vt 0.971236 0.000000
vt 0.971237 1.000000
vt 0.028764 1.000000
vt 0.028764 0.028764
vt 0.028764 0.971236
vt 0.971236 0.971236
vt 0.971236 0.028764
vt 0.961358 0.028586
vt 0.033433 0.028586
vt 0.033433 0.962132
vt 0.961358 0.962132
vt 1.000000 0.028764
vt 1.000000 0.971236
vt 0.000000 0.028764
vt 0.000000 0.971237
vt 0.000000 0.971236
vt 0.000000 1.000000
vt 0.000000 0.000000
vt 0.000000 0.028764
vt 1.000000 0.000000
vt 1.000000 0.028764
vt 1.000000 1.000000
vt 0.971236 1.000000
vt 0.028764 0.000000
vt 1.000000 0.971236
vt 0.028764 1.000000
s 0
usemtl マテリアル
f 3/1/1 4/2/1 19/2/1 17/1/1
f 12/3/2 8/4/2 15/4/2 23/3/2
f 2/5/3 9/6/3 11/7/3 5/8/3
f 18/9/4 21/10/4 24/11/4 14/12/4
f 6/13/5 10/14/5 22/14/5 20/13/5
f 1/15/6 2/5/6 3/1/6
f 4/2/7 5/8/7 6/13/7
f 7/16/8 8/4/8 9/6/8
f 10/14/9 11/7/9 12/3/9
f 13/16/10 14/17/10 15/18/10
f 16/15/11 17/19/11 18/20/11
f 19/21/12 20/13/12 21/22/12
f 22/23/13 23/3/13 24/24/13
f 9/6/14 2/5/14 1/15/14 7/16/14
f 2/5/15 5/8/15 4/2/15 3/1/15
f 5/8/16 11/7/16 10/14/16 6/13/16
f 11/7/17 9/6/17 8/4/17 12/3/17
f 13/16/18 16/15/18 18/20/18 14/17/18
f 17/1/19 19/2/19 21/2/19 18/25/19
f 20/13/20 22/14/20 24/26/20 21/22/20
f 23/3/21 15/4/21 14/27/21 24/24/21
f 12/3/22 23/3/22 22/14/22 10/14/22
f 19/2/23 4/2/23 6/13/23 20/13/23
f 3/1/24 17/1/24 16/15/24 1/15/24
f 15/4/25 8/4/25 7/16/25 13/16/25
f 7/16/26 1/15/26 16/15/26 13/16/26
